<?xml version="1.0" encoding="UTF-8"?>
<svg width="64px" height="64px" viewBox="0 0 64 64" version="1.1" xmlns="http://www.w3.org/2000/svg" xmlns:xlink="http://www.w3.org/1999/xlink">
    <!-- Generator: Sketch 45 (43475) - http://www.bohemiancoding.com/sketch -->
    <title>Artboard</title>
    <desc>Created with Sketch.</desc>
    <defs></defs>
    <g id="Page-1" stroke="none" stroke-width="1" fill="none" fill-rule="evenodd">
        <g id="Artboard" fill-rule="nonzero" fill="#FFFFFF">
            <g id="Group">
                <polygon id="Shape" opacity="0.5" points="56.7091575 2.46823529 39.5698168 0.150588235 28.8773626 14.0729412 46.0120147 16.2588235"></polygon>
                <polygon id="Shape" points="53.0051282 33.9317647 42.4720879 47.6494118 49.1323077 63.7270588 59.6747253 50.0023529"></polygon>
                <polygon id="Shape" opacity="0.78" points="27.8177289 14.5129412 10.7112088 12.1576471 0.112527473 25.9835294 17.2096703 28.2964706"></polygon>
                <polygon id="Shape" points="41.9422711 47.8658824 24.7068132 45.6305882 31.294359 61.5976471 48.6118681 63.9435294"></polygon>
                <polygon id="Shape" opacity="0.78" points="0.0210989011 26.5576471 6.64849817 42.6141176 23.7831502 44.9294118 17.127619 28.8705882"></polygon>
                <polygon id="Shape" points="52.5479853 33.5741176 35.410989 31.2470588 24.7771429 45.0611765 42.0149451 47.2941176"></polygon>
                <polygon id="Shape" opacity="0.5" points="53.1551648 32.7764706 63.8218315 18.9223529 57.1592674 2.82823529 46.4691575 16.6117647"></polygon>
                <polygon id="Shape" opacity="0.78" points="34.9585348 30.8917647 28.2701832 14.8658824 17.6621245 28.6494118 24.3176557 44.7082353"></polygon>
                <polygon id="Shape" opacity="0.5" points="52.625348 33 45.934652 16.8282353 28.8023443 14.6423529 35.490696 30.6705882"></polygon>
            </g>
        </g>
    </g>
</svg>